{
  "accessors": [
    {
      "bufferView": 2,
      "componentType": 5126,
      "count": 3608,
      "max": [
        24.029090881347656,
        3.8290367126464844,
        13.959000587463379
      ],
      "min": [
        -12.493785858154297,
        -1.2202255725860596,
        -11.742843627929688
      ],
      "type": "VEC3"
    },
    {
      "bufferView": 2,
      "byteOffset": 43296,
      "componentType": 5126,
      "count": 3608,
      "max": [
        1.0,
        1.0,
        1.0
      ],
      "min": [
        -1.0,
        -0.9999999403953552,
        -1.0
      ],
      "type": "VEC3"
    },
    {
      "bufferView": 1,
      "componentType": 5126,
      "count": 3608,
      "max": [
        0.0,
        0.0
      ],
      "min": [
        0.0,
        0.0
      ],
      "type": "VEC2"
    },
    {
      "bufferView": 0,
      "componentType": 5125,
      "count": 10722,
      "type": "SCALAR"
    },
    {
      "bufferView": 2,
      "byteOffset": 86592,
      "componentType": 5126,
      "count": 21730,
      "max": [
        24.029090881347656,
        0.10104531794786453,
        13.959000587463379
      ],
      "min": [
        -12.493785858154297,
        0.10061229765415192,
        -11.742843627929688
      ],
      "type": "VEC3"
    },
    {
      "bufferView": 2,
      "byteOffset": 347352,
      "componentType": 5126,
      "count": 21730,
      "max": [
        0.0,
        1.0,
        0.0
      ],
      "min": [
        0.0,
        1.0,
        0.0
      ],
      "type": "VEC3"
    },
    {
      "bufferView": 1,
      "byteOffset": 28864,
      "componentType": 5126,
      "count": 21730,
      "max": [
        0.9999215006828308,
        0.7363467216491699
      ],
      "min": [
        0.0009765625,
        -0.0001217355893459171
      ],
      "type": "VEC2"
    },
    {
      "bufferView": 0,
      "byteOffset": 42888,
      "componentType": 5125,
      "count": 39861,
      "type": "SCALAR"
    },
    {
      "bufferView": 2,
      "byteOffset": 608112,
      "componentType": 5126,
      "count": 65532,
      "max": [
        24.029090881347656,
        3.8290367126464844,
        13.959000587463379
      ],
      "min": [
        -11.14612102508545,
        0.10056402534246445,
        -9.435359954833984
      ],
      "type": "VEC3"
    },
    {
      "bufferView": 2,
      "byteOffset": 1394496,
      "componentType": 5126,
      "count": 65532,
      "max": [
        0.9995564818382263,
        1.0,
        0.9997580647468567
      ],
      "min": [
        -0.9999831318855286,
        -0.9998104572296143,
        -0.9999348521232605
      ],
      "type": "VEC3"
    },
    {
      "bufferView": 1,
      "byteOffset": 202704,
      "componentType": 5126,
      "count": 65532,
      "max": [
        0.9989863038063049,
        0.7363496422767639
      ],
      "min": [
        0.0009765625,
        0.0
      ],
      "type": "VEC2"
    },
    {
      "bufferView": 0,
      "byteOffset": 202332,
      "componentType": 5125,
      "count": 243255,
      "type": "SCALAR"
    },
    {
      "bufferView": 2,
      "byteOffset": 2180880,
      "componentType": 5126,
      "count": 65534,
      "max": [
        24.01585578918457,
        3.826897621154785,
        13.890568733215332
      ],
      "min": [
        -11.796147346496582,
        0.10056402534246445,
        -9.392631530761719
      ],
      "type": "VEC3"
    },
    {
      "bufferView": 2,
      "byteOffset": 2967288,
      "componentType": 5126,
      "count": 65534,
      "max": [
        0.9909080862998962,
        0.9999997019767761,
        0.9996852278709412
      ],
      "min": [
        -0.9997299909591675,
        -0.9995813369750977,
        -0.9999935626983643
      ],
      "type": "VEC3"
    },
    {
      "bufferView": 1,
      "byteOffset": 726960,
      "componentType": 5126,
      "count": 65534,
      "max": [
        0.9989175200462341,
        0.7363508343696594
      ],
      "min": [
        0.0009765625,
        0.0
      ],
      "type": "VEC2"
    },
    {
      "bufferView": 0,
      "byteOffset": 1175352,
      "componentType": 5125,
      "count": 216381,
      "type": "SCALAR"
    },
    {
      "bufferView": 2,
      "byteOffset": 3753696,
      "componentType": 5126,
      "count": 65532,
      "max": [
        24.019926071166992,
        3.8274035453796387,
        1.4826993942260742
      ],
      "min": [
        1.6508986949920654,
        0.10061229765415192,
        -8.490103721618652
      ],
      "type": "VEC3"
    },
    {
      "bufferView": 2,
      "byteOffset": 4540080,
      "componentType": 5126,
      "count": 65532,
      "max": [
        0.9964345097541809,
        0.9999812841415405,
        0.9984710216522217
      ],
      "min": [
        -0.9999098777770996,
        -0.9970470070838928,
        -0.9999954104423523
      ],
      "type": "VEC3"
    },
    {
      "bufferView": 1,
      "byteOffset": 1251232,
      "componentType": 5126,
      "count": 65532,
      "max": [
        0.9990208148956299,
        0.7335608005523682
      ],
      "min": [
        0.0009765625,
        0.0009765625
      ],
      "type": "VEC2"
    },
    {
      "bufferView": 0,
      "byteOffset": 2040876,
      "componentType": 5125,
      "count": 186915,
      "type": "SCALAR"
    },
    {
      "bufferView": 2,
      "byteOffset": 5326464,
      "componentType": 5126,
      "count": 65532,
      "max": [
        21.638565063476563,
        3.82900071144104,
        13.845489501953125
      ],
      "min": [
        -9.244173049926758,
        0.10061229765415192,
        -7.856690406799316
      ],
      "type": "VEC3"
    },
    {
      "bufferView": 2,
      "byteOffset": 6112848,
      "componentType": 5126,
      "count": 65532,
      "max": [
        0.998895525932312,
        0.9999997615814209,
        0.9997252821922302
      ],
      "min": [
        -0.9999748468399048,
        -0.9985631704330444,
        -0.9999991655349731
      ],
      "type": "VEC3"
    },
    {
      "bufferView": 1,
      "byteOffset": 1775488,
      "componentType": 5126,
      "count": 65532,
      "max": [
        0.9990039467811584,
        0.7353976368904114
      ],
      "min": [
        0.0009765625,
        0.0009765625
      ],
      "type": "VEC2"
    },
    {
      "bufferView": 0,
      "byteOffset": 2788536,
      "componentType": 5125,
      "count": 238314,
      "type": "SCALAR"
    },
    {
      "bufferView": 2,
      "byteOffset": 6899232,
      "componentType": 5126,
      "count": 65532,
      "max": [
        5.970270156860352,
        3.8271679878234863,
        13.951284408569336
      ],
      "min": [
        -11.069720268249512,
        0.10061229765415192,
        -5.0438761711120605
      ],
      "type": "VEC3"
    },
    {
      "bufferView": 2,
      "byteOffset": 7685616,
      "componentType": 5126,
      "count": 65532,
      "max": [
        0.9961742162704468,
        0.9999920725822449,
        0.9979522824287415
      ],
      "min": [
        -0.9999455213546753,
        -0.9998269081115723,
        -0.9999644160270691
      ],
      "type": "VEC3"
    },
    {
      "bufferView": 1,
      "byteOffset": 2299744,
      "componentType": 5126,
      "count": 65532,
      "max": [
        0.9990220069885254,
        0.7335063815116882
      ],
      "min": [
        0.0009765625,
        0.0009765625
      ],
      "type": "VEC2"
    },
    {
      "bufferView": 0,
      "byteOffset": 3741792,
      "componentType": 5125,
      "count": 223350,
      "type": "SCALAR"
    },
    {
      "bufferView": 2,
      "byteOffset": 8472000,
      "componentType": 5126,
      "count": 65532,
      "max": [
        5.934701442718506,
        3.8273396492004395,
        13.900348663330078
      ],
      "min": [
        -11.125835418701172,
        0.10056402534246445,
        -9.371853828430176
      ],
      "type": "VEC3"
    },
    {
      "bufferView": 2,
      "byteOffset": 9258384,
      "componentType": 5126,
      "count": 65532,
      "max": [
        0.9990680813789368,
        0.9999854564666748,
        0.9997252821922302
      ],
      "min": [
        -0.999867856502533,
        -0.9997590184211731,
        -0.9999442100524902
      ],
      "type": "VEC3"
    },
    {
      "bufferView": 1,
      "byteOffset": 2824000,
      "componentType": 5126,
      "count": 65532,
      "max": [
        0.9990254640579224,
        0.7353985905647278
      ],
      "min": [
        0.0009765625,
        0.0009765625
      ],
      "type": "VEC2"
    },
    {
      "bufferView": 0,
      "byteOffset": 4635192,
      "componentType": 5125,
      "count": 181395,
      "type": "SCALAR"
    },
    {
      "bufferView": 2,
      "byteOffset": 10044768,
      "componentType": 5126,
      "count": 18604,
      "max": [
        4.5370917320251465,
        3.828768730163574,
        13.68319034576416
      ],
      "min": [
        -10.78549575805664,
        0.10061229765415192,
        -9.32885456085205
      ],
      "type": "VEC3"
    },
    {
      "bufferView": 2,
      "byteOffset": 10268016,
      "componentType": 5126,
      "count": 18604,
      "max": [
        0.966057300567627,
        0.99992436170578,
        0.999280571937561
      ],
      "min": [
        -0.9998679161071777,
        -0.9973627924919128,
        -0.9998281002044678
      ],
      "type": "VEC3"
    },
    {
      "bufferView": 1,
      "byteOffset": 3348256,
      "componentType": 5126,
      "count": 18604,
      "max": [
        0.9989814162254333,
        0.7335352301597595
      ],
      "min": [
        0.0009765625,
        0.005859375
      ],
      "type": "VEC2"
    },
    {
      "bufferView": 0,
      "byteOffset": 5360772,
      "componentType": 5125,
      "count": 38880,
      "type": "SCALAR"
    }
  ],
  "asset": {
    "extras": {
      "author": "9of9 (https://sketchfab.com/9of9)",
      "license": "CC-BY-4.0 (http://creativecommons.org/licenses/by/4.0/)",
      "source": "https://sketchfab.com/3d-models/ionian-cliff-88eeafeabd874d9fb108dc0f6003b049",
      "title": "Ionian Cliff"
    },
    "generator": "Sketchfab-12.65.0",
    "version": "2.0"
  },
  "bufferViews": [
    {
      "buffer": 0,
      "byteLength": 5516292,
      "name": "floatBufferViews",
      "target": 34963
    },
    {
      "buffer": 0,
      "byteLength": 3497088,
      "byteOffset": 5516292,
      "byteStride": 8,
      "name": "floatBufferViews",
      "target": 34962
    },
    {
      "buffer": 0,
      "byteLength": 10491264,
      "byteOffset": 9013380,
      "byteStride": 12,
      "name": "floatBufferViews",
      "target": 34962
    }
  ],
  "buffers": [
    {
      "byteLength": 19504644,
      "uri": "scene.bin"
    }
  ],
  "images": [
    {
      "uri": "textures/water_baseColor.jpeg"
    }
  ],
  "materials": [
    {
      "doubleSided": true,
      "name": "grey",
      "pbrMetallicRoughness": {
        "baseColorFactor": [
          0.2,
          0.2,
          0.2,
          1.0
        ],
        "metallicFactor": 0.0,
        "roughnessFactor": 0.9577051495
      }
    },
    {
      "doubleSided": true,
      "emissiveFactor": [
        1.0,
        1.0,
        1.0
      ],
      "emissiveTexture": {
        "index": 0
      },
      "name": "water",
      "pbrMetallicRoughness": {
        "baseColorTexture": {
          "index": 0
        },
        "metallicFactor": 0.0,
        "roughnessFactor": 0.0
      }
    },
    {
      "doubleSided": true,
      "emissiveFactor": [
        1.0,
        1.0,
        1.0
      ],
      "emissiveTexture": {
        "index": 0
      },
      "name": "terrain",
      "pbrMetallicRoughness": {
        "baseColorFactor": [
          0.5003085837979825,
          0.5003085837979825,
          0.5003085837979825,
          1.0
        ],
        "baseColorTexture": {
          "index": 0
        },
        "metallicFactor": 0.0
      }
    }
  ],
  "meshes": [
    {
      "name": "CliffA_Model_2_grey_0",
      "primitives": [
        {
          "attributes": {
            "NORMAL": 1,
            "POSITION": 0,
            "TEXCOORD_0": 2
          },
          "indices": 3,
          "material": 0,
          "mode": 4
        }
      ]
    },
    {
      "name": "CliffA_Model_2_water_0",
      "primitives": [
        {
          "attributes": {
            "NORMAL": 5,
            "POSITION": 4,
            "TEXCOORD_0": 6
          },
          "indices": 7,
          "material": 1,
          "mode": 4
        }
      ]
    },
    {
      "name": "CliffA_Model_2_terrain_0",
      "primitives": [
        {
          "attributes": {
            "NORMAL": 9,
            "POSITION": 8,
            "TEXCOORD_0": 10
          },
          "indices": 11,
          "material": 2,
          "mode": 4
        }
      ]
    },
    {
      "name": "CliffA_Model_2_terrain_0",
      "primitives": [
        {
          "attributes": {
            "NORMAL": 13,
            "POSITION": 12,
            "TEXCOORD_0": 14
          },
          "indices": 15,
          "material": 2,
          "mode": 4
        }
      ]
    },
    {
      "name": "CliffA_Model_2_terrain_0",
      "primitives": [
        {
          "attributes": {
            "NORMAL": 17,
            "POSITION": 16,
            "TEXCOORD_0": 18
          },
          "indices": 19,
          "material": 2,
          "mode": 4
        }
      ]
    },
    {
      "name": "CliffA_Model_2_terrain_0",
      "primitives": [
        {
          "attributes": {
            "NORMAL": 21,
            "POSITION": 20,
            "TEXCOORD_0": 22
          },
          "indices": 23,
          "material": 2,
          "mode": 4
        }
      ]
    },
    {
      "name": "CliffA_Model_2_terrain_0",
      "primitives": [
        {
          "attributes": {
            "NORMAL": 25,
            "POSITION": 24,
            "TEXCOORD_0": 26
          },
          "indices": 27,
          "material": 2,
          "mode": 4
        }
      ]
    },
    {
      "name": "CliffA_Model_2_terrain_0",
      "primitives": [
        {
          "attributes": {
            "NORMAL": 29,
            "POSITION": 28,
            "TEXCOORD_0": 30
          },
          "indices": 31,
          "material": 2,
          "mode": 4
        }
      ]
    },
    {
      "name": "CliffA_Model_2_terrain_0",
      "primitives": [
        {
          "attributes": {
            "NORMAL": 33,
            "POSITION": 32,
            "TEXCOORD_0": 34
          },
          "indices": 35,
          "material": 2,
          "mode": 4
        }
      ]
    }
  ],
  "nodes": [
    {
      "children": [
        1
      ],
      "matrix": [
        1.0,
        0.0,
        0.0,
        0.0,
        0.0,
        2.220446049250313e-16,
        -1.0,
        0.0,
        0.0,
        1.0,
        2.220446049250313e-16,
        0.0,
        0.0,
        0.0,
        0.0,
        1.0
      ],
      "name": "Sketchfab_model"
    },
    {
      "children": [
        2
      ],
      "matrix": [
        1.0,
        0.0,
        0.0,
        0.0,
        0.0,
        0.0,
        1.0,
        0.0,
        0.0,
        -1.0,
        0.0,
        0.0,
        0.0,
        0.0,
        0.0,
        1.0
      ],
      "name": "f0cab23e47f040b08ef6e7526f7531bf.fbx"
    },
    {
      "children": [
        3
      ],
      "name": "RootNode"
    },
    {
      "children": [
        4,
        5,
        6,
        7,
        8,
        9,
        10,
        11,
        12
      ],
      "name": "CliffA_Model_2"
    },
    {
      "mesh": 0,
      "name": "CliffA_Model_2_grey_0"
    },
    {
      "mesh": 1,
      "name": "CliffA_Model_2_water_0"
    },
    {
      "mesh": 2,
      "name": "CliffA_Model_2_terrain_0"
    },
    {
      "mesh": 3,
      "name": "CliffA_Model_2_terrain_0"
    },
    {
      "mesh": 4,
      "name": "CliffA_Model_2_terrain_0"
    },
    {
      "mesh": 5,
      "name": "CliffA_Model_2_terrain_0"
    },
    {
      "mesh": 6,
      "name": "CliffA_Model_2_terrain_0"
    },
    {
      "mesh": 7,
      "name": "CliffA_Model_2_terrain_0"
    },
    {
      "mesh": 8,
      "name": "CliffA_Model_2_terrain_0"
    }
  ],
  "samplers": [
    {
      "magFilter": 9729,
      "minFilter": 9987,
      "wrapS": 10497,
      "wrapT": 10497
    }
  ],
  "scene": 0,
  "scenes": [
    {
      "name": "Sketchfab_Scene",
      "nodes": [
        0
      ]
    }
  ],
  "textures": [
    {
      "sampler": 0,
      "source": 0
    }
  ]
}
